<svg xmlns="http://www.w3.org/2000/svg" width="22.832" height="31.439" viewBox="0 0 22.832 31.439">
  <g id="Layer_2" data-name="Layer 2" transform="translate(-5.106 -1)">
    <path id="Path_7" data-name="Path 7" d="M16.523,1a6.288,6.288,0,0,0-6.288,6.288V8.336h-.87a3.427,3.427,0,0,0-3.427,3.27L5.11,28.845a3.437,3.437,0,0,0,3.427,3.595H24.508a3.437,3.437,0,0,0,3.427-3.595l-.828-17.239a3.427,3.427,0,0,0-3.427-3.27h-.87V7.288A6.288,6.288,0,0,0,16.523,1ZM12.331,7.288a4.192,4.192,0,1,1,8.384,0V8.336H12.331Zm-1.719,5.439a1.048,1.048,0,1,1,1.048,1.048A1.048,1.048,0,0,1,10.612,12.727Zm9.725,0a1.048,1.048,0,1,1,1.048,1.048A1.048,1.048,0,0,1,20.337,12.727Z" transform="translate(0)" fill="#1f524b"/>
  </g>
</svg>
