<svg xmlns="http://www.w3.org/2000/svg" width="42.164" height="41.869" viewBox="0 0 42.164 41.869">
  <g id="Layer_4" transform="translate(-3.875 -4.185)">
    <g id="Group_78" data-name="Group 78" transform="translate(4 4.31)">
      <path id="Path_68" data-name="Path 68" d="M40.809,4.31H22.778a5.111,5.111,0,0,0-5.1,5.105v9.066H9.1a5.109,5.109,0,0,0-5.1,5.1V34.92a5.109,5.109,0,0,0,5.1,5.1h.8v3.53a2.344,2.344,0,0,0,1.425,2.177A2.381,2.381,0,0,0,13.9,45.29l5.607-5.266h7.632a5.109,5.109,0,0,0,5.1-5.1V27.568l3.776,3.537a2.371,2.371,0,0,0,3.994-1.729v-3.52h.8a5.11,5.11,0,0,0,5.1-5.1V9.415a5.111,5.111,0,0,0-5.1-5.105ZM27.139,37.447H19a1.291,1.291,0,0,0-.882.35l-5.638,5.3V38.735a1.288,1.288,0,0,0-1.288-1.288H9.1A2.528,2.528,0,0,1,6.577,34.92V23.584A2.528,2.528,0,0,1,9.1,21.058h8.587a5.107,5.107,0,0,0,5.089,4.8h6.887V34.92A2.528,2.528,0,0,1,27.139,37.447Zm16.2-16.7a2.531,2.531,0,0,1-2.528,2.529H38.723a1.288,1.288,0,0,0-1.288,1.288V28.9l-5.593-5.249-.027-.025,0,0-.007-.006a1.287,1.287,0,0,0-.881-.347H22.778a2.532,2.532,0,0,1-2.528-2.529v0h.01l-.01-11.333a2.531,2.531,0,0,1,2.528-2.529H40.809a2.532,2.532,0,0,1,2.528,2.529Z" transform="translate(-4 -4.31)" fill="#fff" stroke="#1f524b" stroke-width="0.25"/>
      <path id="Path_69" data-name="Path 69" d="M60.424,18.648H50.117a1.288,1.288,0,0,0,0,2.577H60.424a1.288,1.288,0,1,0,0-2.577Z" transform="translate(-27.477 -11.819)" fill="#fff" stroke="#1f524b" stroke-width="0.25"/>
      <path id="Path_70" data-name="Path 70" d="M60.424,29.467H50.117a1.288,1.288,0,0,0,0,2.577H60.424a1.288,1.288,0,1,0,0-2.577Z" transform="translate(-27.477 -17.485)" fill="#fff" stroke="#1f524b" stroke-width="0.25"/>
      <path id="Path_71" data-name="Path 71" d="M21.974,53.929a1.354,1.354,0,0,0-.412.257,1.427,1.427,0,0,0-.387.928,1.308,1.308,0,0,0,.387.9,1.255,1.255,0,0,0,.9.388,1.7,1.7,0,0,0,.515-.1,1.1,1.1,0,0,0,.412-.284,1.31,1.31,0,0,0,.387-.9,1.426,1.426,0,0,0-.387-.928A1.349,1.349,0,0,0,21.974,53.929Z" transform="translate(-12.995 -30.243)" fill="#fff" stroke="#1f524b" stroke-width="0.25"/>
      <path id="Path_72" data-name="Path 72" d="M33.827,53.929a1.348,1.348,0,0,0-1.417.257,1.4,1.4,0,0,0-.361.928,1.285,1.285,0,0,0,.361.9,1.1,1.1,0,0,0,.412.284,1.869,1.869,0,0,0,.515.1,1.255,1.255,0,0,0,.9-.388,1.31,1.31,0,0,0,.387-.9,1.426,1.426,0,0,0-.387-.928A1.366,1.366,0,0,0,33.827,53.929Z" transform="translate(-18.689 -30.243)" fill="#fff" stroke="#1f524b" stroke-width="0.25"/>
      <path id="Path_73" data-name="Path 73" d="M44.618,53.93a1.334,1.334,0,0,0-1,0,1.354,1.354,0,0,0-.412.257,1.427,1.427,0,0,0-.387.928,1.308,1.308,0,0,0,.387.9,1.255,1.255,0,0,0,.9.388,1.7,1.7,0,0,0,.515-.1,1.106,1.106,0,0,0,.412-.284,1.285,1.285,0,0,0,.361-.9,1.4,1.4,0,0,0-.361-.928A1.374,1.374,0,0,0,44.618,53.93Z" transform="translate(-24.327 -30.245)" fill="#fff" stroke="#1f524b" stroke-width="0.25"/>
      <path id="Path_74" data-name="Path 74" d="M17.083,23.93H19.66a1.288,1.288,0,1,0,0-2.577H17.083a1.288,1.288,0,0,0,0,2.577Z" transform="translate(-10.177 -13.235)" fill="#fff" stroke="#1f524b" stroke-width="0.25"/>
      <path id="Path_75" data-name="Path 75" d="M73.756,70.04H71.179a1.288,1.288,0,0,0,0,2.577h2.577a1.288,1.288,0,0,0,0-2.577Z" transform="translate(-38.507 -38.733)" fill="#fff" stroke="#1f524b" stroke-width="0.25"/>
    </g>
  </g>
</svg>
