<svg id="instagram" xmlns="http://www.w3.org/2000/svg" width="27.118" height="27.119" viewBox="0 0 27.118 27.119">
  <path id="Path_12" data-name="Path 12" d="M20.339,0H6.78A6.714,6.714,0,0,0,0,6.78V20.339a6.714,6.714,0,0,0,6.78,6.78H20.339a6.714,6.714,0,0,0,6.78-6.78V6.78A6.714,6.714,0,0,0,20.339,0Zm4.068,20.339a4,4,0,0,1-4.068,4.068H6.78a4,4,0,0,1-4.068-4.068V6.78A4,4,0,0,1,6.78,2.712H20.339A4,4,0,0,1,24.407,6.78Z" fill="#a38c2a"/>
  <path id="Path_13" data-name="Path 13" d="M11.78,5A6.714,6.714,0,0,0,5,11.78a6.714,6.714,0,0,0,6.78,6.78,6.714,6.714,0,0,0,6.78-6.78A6.714,6.714,0,0,0,11.78,5Zm0,10.847A4,4,0,0,1,7.712,11.78,4,4,0,0,1,11.78,7.712a4,4,0,0,1,4.068,4.068A4,4,0,0,1,11.78,15.847Z" transform="translate(1.78 1.78)" fill="#a38c2a"/>
  <ellipse id="Ellipse_13" data-name="Ellipse 13" cx="1.312" cy="1.312" rx="1.312" ry="1.312" transform="translate(18.92 5.475)" fill="#a38c2a"/>
</svg>
