<svg xmlns="http://www.w3.org/2000/svg" width="26.367" height="21.094" viewBox="0 0 26.367 21.094">
  <g id="Layer_1" transform="translate(-1 -4)">
    <path id="Path_2" data-name="Path 2" d="M25.609,7.516H2.758A1.758,1.758,0,0,1,2.758,4H25.609a1.758,1.758,0,0,1,0,3.516Z" transform="translate(0 0)" fill="#1f524b"/>
    <path id="Path_3" data-name="Path 3" d="M25.609,27.516H2.758a1.758,1.758,0,0,1,0-3.516H25.609a1.758,1.758,0,1,1,0,3.516Z" transform="translate(0 -2.422)" fill="#1f524b"/>
    <path id="Path_4" data-name="Path 4" d="M25.609,17.516H2.758a1.758,1.758,0,0,1,0-3.516H25.609a1.758,1.758,0,0,1,0,3.516Z" transform="translate(0 -1.211)" fill="#1f524b"/>
  </g>
</svg>
