<svg id="pinterest" xmlns="http://www.w3.org/2000/svg" width="22.033" height="27.119" viewBox="0 0 22.033 27.119">
  <g id="Group_25" data-name="Group 25" transform="translate(0)">
    <path id="Path_14" data-name="Path 14" d="M59.389,0C51.957,0,48,4.763,48,9.956c0,2.409,1.346,5.412,3.5,6.365.327.147.505.085.578-.219.064-.231.347-1.341.485-1.864a.479.479,0,0,0-.115-.471,6.176,6.176,0,0,1-1.283-3.748c0-3.622,2.88-7.139,7.78-7.139,4.237,0,7.2,2.753,7.2,6.69,0,4.449-2.354,7.527-5.414,7.527a2.424,2.424,0,0,1-2.554-2.973c.483-1.958,1.431-4.063,1.431-5.475a2.1,2.1,0,0,0-2.176-2.314c-1.724,0-3.122,1.707-3.122,4a5.7,5.7,0,0,0,.515,2.439s-1.705,6.888-2.022,8.175a18.293,18.293,0,0,0,.125,6.009.179.179,0,0,0,.325.083,21.356,21.356,0,0,0,2.807-5.287c.21-.775,1.073-3.915,1.073-3.915a4.686,4.686,0,0,0,3.953,1.885c5.193,0,8.946-4.565,8.946-10.229C70.019,4.063,65.371,0,59.389,0Z" transform="translate(-48.004)" fill="#a38c2a"/>
  </g>
</svg>
