<svg xmlns="http://www.w3.org/2000/svg" width="480.367" height="106.873" viewBox="0 0 480.367 106.873">
  <g id="Group_122" data-name="Group 122" transform="translate(-64.984 -53.757)">
    <path id="Path_41" data-name="Path 41" d="M606.254,190.867c-.14-2.928.1-5.8.05-8.734-.041-2.424.046-4.855.151-7.279a68.819,68.819,0,0,0,.036-9.038c-.1-1.207.046-2.434-.068-3.636-.211-2.376-.463-4.751-.8-7.109-.486-3.384-1.156-6.744-1.535-10.141a26.058,26.058,0,0,1,.13-5.642,6.281,6.281,0,0,1,1.146-2.335c.554-.905,1.494-.815,2.363-.71.531.068.805.7.71,1.421a39.158,39.158,0,0,0-.229,7.257c.136,2.414.18,4.837.216,7.261.041,3.146.077,6.281.05,9.426-.045,5.179-.17,10.353-.211,15.532-.018,1.755.151,3.518.151,5.28.009.99-.151,1.988-.175,2.987-.068,3.6-.095,7.2-.166,10.807-.032,1.377-.207,2.749-.184,4.131.022,1.659.193,3.319.3,4.979a21.907,21.907,0,0,1,.151,3.636,5.167,5.167,0,0,1-1.822,3.33.724.724,0,0,1-1.183-.175,2.784,2.784,0,0,1-.427-1.03,9.175,9.175,0,0,1,.311-4.193,24.866,24.866,0,0,0,.754-7.009c-.1-.513.045-2.133-.151-3.45-.063-1.773.7-4.265.431-5.561" transform="translate(-302.787 -82.42)" fill="#a38f1a"/>
    <path id="Path_42" data-name="Path 42" d="M613.533,143.324a17.931,17.931,0,0,0-1.7,1.66c-.453.661-1.259,1.925-1.557,2.381a26.888,26.888,0,0,0-1.623,2.965,18.1,18.1,0,0,0-.689,1.854,17.647,17.647,0,0,0,5.57-8.864m2.021-2.74c.216,4.562-6.317,14.056-9.638,14.974-.347.1-.063-1.2.045-1.589a39.438,39.438,0,0,1,1.126-4.211,9.176,9.176,0,0,1,1.255-2.124c.878-1.264,1.727-2.556,2.715-3.739a10.632,10.632,0,0,1,3.343-2.965c.315-.151,1.134-.545,1.147-.347" transform="translate(-296.609 -67.201)" fill="#a38f1a"/>
    <path id="Path_43" data-name="Path 43" d="M604.325,142.864a6.232,6.232,0,0,0,1.7,2.735c.393.365,2.633,3.7,4.626,4.617.188.151,1.416.67,1.143-.175-.806-2.456-4.828-5.066-7.47-7.177m9.062,8.234c.067.329-.046.674-.266.715s.284.819-.17,1.03a4.666,4.666,0,0,1-2.9-.958c-.949-.874-1.895-1.75-2.776-2.686a31.741,31.741,0,0,1-2.354-2.749c-1.135-1.509-2.191-3.064-3.271-4.6a4.1,4.1,0,0,1-.293-.622c-.009-.422.81-.581,1.233-.59a31.707,31.707,0,0,1,3.645,2.168,19.652,19.652,0,0,1,5.858,5.422,7.618,7.618,0,0,1,1.3,2.867" transform="translate(-311.985 -66.795)" fill="#a38f1a"/>
    <path id="Path_44" data-name="Path 44" d="M603.826,145.174c-.081.081-.161.151-.247.234a5.18,5.18,0,0,0,1.759,2.438c1.777,1.634,3.572,3.253,5.368,4.873a6.714,6.714,0,0,0,.733.481,3.66,3.66,0,0,0-1.619-3.168c-1.358-1.178-2.7-2.367-4.074-3.514-.6-.495-1.273-.895-1.916-1.341m-1.943-1.26c.338-.409.522-.409,1.056-.418a24.009,24.009,0,0,1,4.6,2.667,13.137,13.137,0,0,1,4.72,5.706c.526,1.174-.046,2.438-.905,2.47-1.426.045-7.424-4.135-9.229-8.319-.274-.638-.715-1.273-.252-2.112" transform="translate(-310.867 -56.805)" fill="#a38f1a"/>
    <path id="Path_45" data-name="Path 45" d="M603.7,147.524a12.758,12.758,0,0,0,3.62,4.7c2.363,2.254,4.013,3.334,4.989,3.357-.887-1.147-1.714-2.24-2.565-3.319a27.9,27.9,0,0,0-5.084-4.194,7.276,7.276,0,0,0-.967-.549m10.2,9.44c-.122.151-1.094-.184-1.57-.2a3.154,3.154,0,0,1-1.975-.683,60.247,60.247,0,0,1-6.551-5.652,13.434,13.434,0,0,1-1.282-1.7c-.453-.7-1.09-1.85-1.26-2.173s1.291-1.021,2.5-.361a18.857,18.857,0,0,1,6.186,4.432,17.814,17.814,0,0,1,3.339,4.211,5.943,5.943,0,0,1,.6,2.129" transform="translate(-312.386 -48.338)" fill="#a38f1a"/>
    <path id="Path_46" data-name="Path 46" d="M607.318,153.588c2.112-.815,5.772-5.642,5.84-7.59-3.05,1.639-4.616,4.351-5.84,7.59m-1.575,1.854c-.166-.472.338-1.219.536-1.836.108-.356.427-.733.365-1.044a2.733,2.733,0,0,1,.674-2.065,17.833,17.833,0,0,1,4.5-5.116c1.224-.905,3.811-2.492,4.243-1.723s-.643,2.465-1.408,3.5c-1.391,1.859-2.785,3.716-4.26,5.507a29.189,29.189,0,0,1-2.726,2.753c-.693.635-1.755.5-1.922.027" transform="translate(-296.75 -56.958)" fill="#a38f1a"/>
    <path id="Path_47" data-name="Path 47" d="M615.35,147.581a7.3,7.3,0,0,0-.819.122,8.176,8.176,0,0,0-3.384,2.528,44.95,44.95,0,0,0-2.867,3.621,3.248,3.248,0,0,0-.279.706,3.339,3.339,0,0,0,2.375-1.192c.49-.453.967-.931,1.435-1.4a21.631,21.631,0,0,0,1.736-1.782c.6-.754,1.116-1.6,1.8-2.61m1.417.247c-1.625,1.9-3.249,3.811-4.9,5.7a9.457,9.457,0,0,1-3.051,2.159c-.949.453-3.086.742-3.1.252s.441-.617.572-.806c.189-.27.576-.617.518-.815-.32-1.049.518-1.509.994-2.129a21.209,21.209,0,0,1,4.617-4.526c1.264-.905,3.8-2.254,5.368-1.611.361.356-.922,1.659-1.021,1.782" transform="translate(-296.732 -48.472)" fill="#a38f1a"/>
    <path id="Path_48" data-name="Path 48" d="M610.225,140.924c-2.165.905-2.835,3.1-3.257,4.887,1.085-1.358,2.853-2.826,3.257-4.887m-3.667,7.217c-.567.118-.9-.572-.931-1.13a6.109,6.109,0,0,1,.913-3.707,20.116,20.116,0,0,1,2.043-2.69,6.573,6.573,0,0,1,1.7-1.214.721.721,0,0,1,1.151.638,4.407,4.407,0,0,1-.647,3.123c-.856,1.125-1.831,2.156-2.749,3.226-.508.594-.913,1.638-1.48,1.755" transform="translate(-297.09 -71.624)" fill="#a38f1a"/>
    <path id="Path_49" data-name="Path 49" d="M606.536,144.641a4.441,4.441,0,0,0-2-3.185c-.311.994.252,1.916,2,3.185m-3.72-5.754c.787-.4,3.3,1.732,4.328,3.366a11.2,11.2,0,0,1,1.017,2.286c.121.347.151.94-.059,1.13a1.54,1.54,0,0,1-1.237.3,4.085,4.085,0,0,1-1.759-.905,8.849,8.849,0,0,1-2.753-4.662c-.109-.6.045-1.305.463-1.509" transform="translate(-308.616 -73.111)" fill="#a38f1a"/>
    <path id="Path_50" data-name="Path 50" d="M611.061,149.649a6.14,6.14,0,0,0-3.861,2.889,5.3,5.3,0,0,0,3.861-2.889m1.012-.949c.221.252.023.647-.072.851a9.959,9.959,0,0,1-4.375,4.693,1.134,1.134,0,0,1-1.736-.656,1.251,1.251,0,0,1-.045-.81A5.508,5.508,0,0,1,608,149.929c1.017-.643,1.616-1.337,2.937-1.337.207.014.905-.139,1.126.109" transform="translate(-296.431 -39.098)" fill="#a38f1a"/>
    <path id="Path_51" data-name="Path 51" d="M606.612,152.911a3.391,3.391,0,0,0-3.1-2.992c.338.49.594.905.89,1.273.265.32.728.545.846.895.243.742.787.733,1.368.824m-.224,1.142a1.6,1.6,0,0,1-.837-.37,7.9,7.9,0,0,1-2.749-3.017,2.332,2.332,0,0,1-.248-1.187.838.838,0,0,1,1.278-.7c1.219.634,2.395,1.346,3.572,2.056a1.818,1.818,0,0,1,.508.554c.375.554.8,1.107.4,1.836a1.945,1.945,0,0,1-1.929.833" transform="translate(-307.819 -38.756)" fill="#a38f1a"/>
    <path id="Path_52" data-name="Path 52" d="M609.625,152.342a3.075,3.075,0,0,1-2.434,2.556,1.089,1.089,0,0,1-1.27-1.044,5.578,5.578,0,0,1-.125-1.323A2.882,2.882,0,0,1,607.8,150.4c.98-.2,1.845.724,1.822,1.939" transform="translate(-296.474 -32.738)" fill="#a38f1a"/>
    <path id="Path_53" data-name="Path 53" d="M603.169,152.039c0-.1-.045-1.192.558-1.457.666-.3,1.215.118,1.668.563a9.191,9.191,0,0,1,1.4,1.58c.386.635.166,1.021-.527,1.358a4.086,4.086,0,0,0-.711.453,1.32,1.32,0,0,1-2.172-.665,10.008,10.008,0,0,1-.211-1.836" transform="translate(-305.641 -32.372)" fill="#a38f1a"/>
    <path id="Path_54" data-name="Path 54" d="M605.75,143.019c-.733-1.044.518-3.527,2.088-4.621.324-.229,1.071-.383,1.215-.211.329.356.661,1.067.508,1.43a5.743,5.743,0,0,1-3.257,3.437c-.1.041-.453.118-.554-.036" transform="translate(-297.365 -75.643)" fill="#a38f1a"/>
    <path id="Path_55" data-name="Path 55" d="M603.048,137.556c.347-.284,1.121-.018,1.539.418a4.4,4.4,0,0,1,1.544,2.912c.013.567-.3.783-.8.617-1.509-.513-3.169-3.212-2.286-3.945" transform="translate(-306.924 -78.008)" fill="#a38f1a"/>
    <path id="Path_56" data-name="Path 56" d="M569.781,160.2a2.69,2.69,0,1,1,2.695,2.695,2.69,2.69,0,0,1-2.695-2.695" transform="translate(-422.476 -7.763)" fill="#a38f1a"/>
    <path id="Path_57" data-name="Path 57" d="M644.047,160.2a2.689,2.689,0,1,0-2.691,2.694,2.689,2.689,0,0,0,2.691-2.694" transform="translate(-181.414 -7.762)" fill="#a38f1a"/>
    <g id="Group_4" data-name="Group 4" transform="translate(64.984 64.459)">
      <path id="Path_26" data-name="Path 26" d="M678.508,138.744H652.76a.416.416,0,0,0-.418.413v2.876a.391.391,0,0,0,.386.391h10.906a.151.151,0,0,1,.151.161v48.629a.39.39,0,0,0,.4.388h2.867a.415.415,0,0,0,.418-.418V142.591a.171.171,0,0,1,.175-.166h10.852a.427.427,0,0,0,.422-.432v-2.839a.411.411,0,0,0-.409-.409" transform="translate(-198.556 -137.898)" fill="#1f524b"/>
      <path id="Path_27" data-name="Path 27" d="M670.536,188.021H649.214a.2.2,0,0,1-.2-.207V166.089a.2.2,0,0,1,.2-.207h18.533a.412.412,0,0,0,.414-.409v-2.726a.441.441,0,0,0-.453-.441H649.214a.2.2,0,0,1-.2-.2V142.524a.2.2,0,0,1,.2-.2h20.144a.4.4,0,0,0,.4-.4v-2.758a.422.422,0,0,0-.423-.422H645.758a.415.415,0,0,0-.418.418v52.015a.42.42,0,0,0,.418.427h24.795a.424.424,0,0,0,.424-.427v-2.716a.441.441,0,0,0-.441-.436" transform="translate(-223.055 -137.893)" fill="#1f524b"/>
      <path id="Path_28" data-name="Path 28" d="M647.618,165.321c2.965,4.828,10.259,17.214,14.888,25.313.2.347.4.64.27.8s-.235.166-.638.166h-2.762a.638.638,0,0,1-.558-.32c-4.338-7.6-11.24-19.257-14.2-24.157a.256.256,0,0,0-.22-.118h-2.241a.111.111,0,0,0-.111.113v24.125a.352.352,0,0,1-.351.351h-2.947a.371.371,0,0,1-.374-.37V139.153a.4.4,0,0,1,.4-.4h2.853a.422.422,0,0,1,.418.422v24.153a.1.1,0,0,0,.03.078.1.1,0,0,0,.078.03h2.112a.151.151,0,0,0,.121-.072c4.458-7.635,9.336-16.6,13.5-24.309a.57.57,0,0,1,.513-.3h2.848c.139,0,.5-.023.576.151.082.216.027.279-.161.626-4.216,7.8-9.724,17.466-14.031,25.273a.452.452,0,0,0-.018.522" transform="translate(-247.436 -137.896)" fill="#1f524b"/>
      <path id="Path_29" data-name="Path 29" d="M640.7,169.153h-6.573a.131.131,0,0,1-.131-.13v-26.67a.118.118,0,0,1,.113-.122H640.7c9.1,0,12.329,2.092,12.329,13.841,0,11.059-4.153,13.085-12.329,13.085m7.361,2.667a.108.108,0,0,1,.063-.139c5.849-1.89,8.584-6.871,8.584-15.613,0-14.565-5.624-17.327-16.009-17.327H630.678a.361.361,0,0,0-.361.356v52.138a.373.373,0,0,0,.37.37h2.928a.381.381,0,0,0,.383-.383v-18.48a.108.108,0,0,1,.1-.1h6.6a32.792,32.792,0,0,0,3.532-.171.189.189,0,0,1,.2.125l7.118,18.367c.193.477.292.638.688.638h2.867a.483.483,0,0,0,.452-.179c.094-.166-.031-.4-.22-.895Z" transform="translate(-275.641 -137.898)" fill="#1f524b"/>
      <path id="Path_30" data-name="Path 30" d="M630.168,173.091c2.191-8.575,5.749-21.6,7.279-26.8h.027c1.526,5.193,5.13,18.389,7.284,26.817a.087.087,0,0,1-.089.109h-14.4a.1.1,0,0,1-.081-.038.1.1,0,0,1-.019-.087m23.213,17.6c-2.336-8.877-11.406-42.069-14.151-51.652a.4.4,0,0,0-.39-.293h-2.785a.365.365,0,0,0-.355.266c-2.716,9.5-11.707,42.528-14.083,51.437-.151.549-.243.81-.1.967.211.229.4.193.82.193h2.24c.545,0,.634-.175.755-.631.526-2.083,1.679-6.394,3.807-14.111a.1.1,0,0,1,.086-.063h16.467a.092.092,0,0,1,.091.072c1.659,6.006,3.06,11.217,3.829,14.182.063.252.193.554.59.554h2.547c.361,0,.5,0,.652-.17s.068-.4-.018-.742" transform="translate(-306.674 -137.897)" fill="#1f524b"/>
      <path id="Path_31" data-name="Path 31" d="M648.127,139.13v52.14a.336.336,0,0,1-.338.333h-3.017a.332.332,0,0,1-.334-.333V147.86a.229.229,0,0,0-.441-.086l-11.887,29.641c-.266.693-.343.86-.8.86h-3.168a.453.453,0,0,1-.415-.279l-12.112-30.222a.229.229,0,0,0-.44.09v43.157a.579.579,0,0,1-.581.581h-2.547a.546.546,0,0,1-.544-.545V139.294a.551.551,0,0,1,.545-.549h3.339c.481,0,.563.086.754.572l13.508,33.542a.229.229,0,0,0,.422,0l13.408-33.565c.207-.567.409-.549.878-.549h3.393a.383.383,0,0,1,.377.379" transform="translate(-341.462 -137.894)" fill="#1f524b"/>
      <path id="Path_32" data-name="Path 32" d="M573.385,139.017c0-.151.077-.225.3-.225h7.37a.2.2,0,0,1,.221.225v1.358a.559.559,0,0,1-.151.379l-1.13.824a.623.623,0,0,0-.151.379l-9.854,49.272a.4.4,0,0,1-.3.225h-6.541c-.23,0-.3-.072-.3-.225l-9.857-49.272c0-.077-.072-.151-.225-.3l-1.13-.905a.607.607,0,0,1-.151-.379v-1.358a.2.2,0,0,1,.229-.225h7.442a.415.415,0,0,1,.3.225l6.92,34.682c0,.077.072.077.072,0Z" transform="translate(-551.482 -137.739)" fill="#1f524b"/>
      <path id="Path_33" data-name="Path 33" d="M568.706,191.222a.2.2,0,0,1-.225.229h-8.346a.2.2,0,0,1-.229-.229v-1.35a.594.594,0,0,1,.151-.374l.531-.379a.352.352,0,0,0,.225-.379V141.5a.4.4,0,0,0-.225-.373l-.531-.379a.619.619,0,0,1-.151-.374v-1.358a.206.206,0,0,1,.06-.168.2.2,0,0,1,.17-.057h8.346a.2.2,0,0,1,.225.225v1.358a.342.342,0,0,1-.225.374l-.526.379a.565.565,0,0,0-.151.373v47.244a.59.59,0,0,0,.151.379l.526.379a.4.4,0,0,1,.225.374Z" transform="translate(-522.02 -137.738)" fill="#1f524b"/>
      <path id="Path_34" data-name="Path 34" d="M564.021,139.015a.2.2,0,0,1,.225-.225h8.344a.2.2,0,0,1,.168.057.2.2,0,0,1,.057.168v1.358a.354.354,0,0,1-.225.379l-.526.373a.571.571,0,0,0-.151.379v42.73a.2.2,0,0,0,.229.229h14.667a.416.416,0,0,0,.374-.229l.378-.531a.591.591,0,0,1,.377-.151h1.278a.2.2,0,0,1,.167.057.2.2,0,0,1,.057.168v7.447a.2.2,0,0,1-.225.225h-24.97a.2.2,0,0,1-.225-.225v-1.358a.591.591,0,0,1,.151-.374l.531-.379a.341.341,0,0,0,.221-.374V141.5a.414.414,0,0,0-.221-.379l-.531-.373a.6.6,0,0,1-.151-.379Z" transform="translate(-507.62 -137.738)" fill="#1f524b"/>
      <path id="Path_35" data-name="Path 35" d="M571.007,139.016a.2.2,0,0,1,.229-.225h8.346a.2.2,0,0,1,.224.225v1.358a.353.353,0,0,1-.224.379l-.527.373a.57.57,0,0,0-.151.379v42.73a.2.2,0,0,0,.225.229H593.8a.412.412,0,0,0,.374-.229l.377-.531a.592.592,0,0,1,.377-.151H596.2a.2.2,0,0,1,.169.056.2.2,0,0,1,.056.169v7.447a.2.2,0,0,1-.055.17.2.2,0,0,1-.17.055H571.236a.2.2,0,0,1-.229-.225v-1.358a.59.59,0,0,1,.151-.374l.531-.379a.344.344,0,0,0,.225-.374V141.5a.417.417,0,0,0-.225-.379l-.531-.373a.6.6,0,0,1-.151-.379Z" transform="translate(-483.174 -137.738)" fill="#1f524b"/>
      <path id="Path_36" data-name="Path 36" d="M588.489,177.31c0,.077.073.151.224.151h7.979c.15,0,.224-.068.224-.151l-4.14-20.768c-.077-.068-.077-.068-.151,0ZM607.6,191.222a.2.2,0,0,1-.225.229h-9.261a.2.2,0,0,1-.224-.229v-1.35a.551.551,0,0,1,.151-.374l.906-.828a.475.475,0,0,0,.15-.379l-.985-4.814a.2.2,0,0,0-.225-.229H587.51a.2.2,0,0,0-.17.058.2.2,0,0,0-.056.171l-.985,4.814a.617.617,0,0,0,.151.379l.905.828a.575.575,0,0,1,.151.374v1.35a.2.2,0,0,1-.225.229h-9.261c-.151,0-.22-.072-.22-.229v-1.35c0-.077.072-.151.151-.374l1.126-.828a.932.932,0,0,0,.229-.379l9.853-49.276a.2.2,0,0,1,.225-.225H596a.2.2,0,0,1,.221.225l9.861,49.276c0,.077.068.151.225.3l1.13.905c.072.22.151.3.151.374Z" transform="translate(-459.38 -137.738)" fill="#1f524b"/>
      <path id="Path_37" data-name="Path 37" d="M595.891,192.784c-10,0-10.533-9.547-10.533-10.452V148.94c0-1.43.828-10.384,10.533-10.384h3.537c9.93,0,10.529,9.48,10.529,10.457v4.546c0,.151-.068.225-.221.225h-7.451a.2.2,0,0,1-.225-.225V152.28a.589.589,0,0,1,.151-.379l.527-.374a.582.582,0,0,0,.15-.379v-2.061a6.564,6.564,0,0,0-.453-1.727,3.177,3.177,0,0,0-3.018-1.81h-3.527a3.2,3.2,0,0,0-3.078,1.81,6.385,6.385,0,0,0-.453,1.728v33.174a6.272,6.272,0,0,0,.453,1.81,3.153,3.153,0,0,0,3.078,1.727h3.537a3.13,3.13,0,0,0,3.017-1.727,6.42,6.42,0,0,0,.453-1.81V167.446a.2.2,0,0,0-.225-.229H598.61c-.225,0-.3-.072-.3-.151V160.9c0-.151,0-.225.151-.225h11.285a.2.2,0,0,1,.22.225v31.139c0,.151-.068.229-.22.229h-1.283c-.225,0-.3-.077-.3-.229l-1.126-1.881c-.077-.151-.151-.151-.229-.072a9.806,9.806,0,0,1-7.37,2.7Z" transform="translate(-432.951 -138.556)" fill="#1f524b"/>
      <path id="Path_38" data-name="Path 38" d="M617.849,191.222a.2.2,0,0,1-.225.229H592.653c-.151,0-.225-.072-.225-.229v-1.35a.58.58,0,0,1,.151-.3l.526-.453c.151-.077.225-.151.225-.3V141.5a.4.4,0,0,0-.225-.373l-.526-.379a.587.587,0,0,1-.151-.374v-1.358a.2.2,0,0,1,.225-.225h24.971a.2.2,0,0,1,.225.225v7.451a.2.2,0,0,1-.225.22h-1.277a.628.628,0,0,1-.377-.151l-.377-.527a.632.632,0,0,0-.374-.229H600.546c-.151,0-.22.073-.22.229v13.616c0,.151.072.229.22.229h10.237a.614.614,0,0,0,.379-.151l.377-.536a.668.668,0,0,1,.375-.22h1.358a.2.2,0,0,1,.22.22v7.905a.2.2,0,0,1-.055.167.2.2,0,0,1-.166.058h-1.358a.338.338,0,0,1-.375-.225l-.377-.453a.412.412,0,0,0-.379-.225H600.546c-.151,0-.22.068-.22.225v17.6a.2.2,0,0,0,.22.225h14.672a.412.412,0,0,0,.374-.225l.377-.526a.559.559,0,0,1,.377-.151h1.277a.2.2,0,0,1,.225.229Z" transform="translate(-408.215 -137.738)" fill="#1f524b"/>
      <path id="Path_39" data-name="Path 39" d="M657.883,149.738h.252c.427,0,.576.1.576.652,0,.463-.151.622-.576.622h-.252Zm1.521.647c-.018-.905-.423-1.328-1.269-1.328h-.728a.207.207,0,0,0-.212.216v3.654a.207.207,0,0,0,.212.216h.265a.206.206,0,0,0,.211-.216v-1.255h.243l.585,1.337a.216.216,0,0,0,.207.134h.3c.339,0,.193-.284.193-.284l-.585-1.332a1.131,1.131,0,0,0,.577-1.142" transform="translate(-181.569 -101.802)" fill="#1f524b"/>
      <path id="Path_40" data-name="Path 40" d="M663.069,152.943c0,2.452-.833,3.5-2.771,3.5s-2.776-1.044-2.776-3.5.833-3.5,2.776-3.5,2.771,1.049,2.771,3.5m-2.771-4.41c-2.479,0-3.686,1.444-3.686,4.41s1.207,4.405,3.686,4.405,3.68-1.439,3.68-4.405-1.207-4.41-3.68-4.41" transform="translate(-183.61 -103.642)" fill="#1f524b"/>
      <rect id="Rectangle_99" data-name="Rectangle 99" width="3.251" height="15.918" transform="translate(103.32 80.033)" fill="#1f524b"/>
      <path id="Path_58" data-name="Path 58" d="M590.651,156.343v15.919h-1.578l-9.5-10.025v10.025h-3.226V156.343h1.578l9.483,10.025V156.343Z" transform="translate(-464.505 -76.314)" fill="#1f524b"/>
      <path id="Path_59" data-name="Path 59" d="M593.29,167.726c0,3.069-2.456,4.878-6.165,4.878a12.285,12.285,0,0,1-6.609-1.509l1.169-2.506a11.352,11.352,0,0,0,5.556,1.219c1.737,0,2.776-.635,2.776-1.81,0-1.085-1.057-1.557-3.384-2.1-3.28-.754-5.922-1.673-5.922-4.81,0-2.8,2.24-4.787,5.884-4.787a15.452,15.452,0,0,1,6.1,1.287l-1.309,2.574a14.073,14.073,0,0,0-4.855-1.056c-1.629,0-2.528.724-2.528,1.714,0,1.13,1.13,1.607,3.518,2.147,3.434.769,5.777,1.854,5.777,4.764" transform="translate(-449.895 -76.453)" fill="#1f524b"/>
      <path id="Path_60" data-name="Path 60" d="M589.948,165.483c2.574,0,3.788-1.287,3.788-3.159a2.97,2.97,0,0,0-3.357-3.186h-2.8v6.345Zm.949-9.143c4.653,0,6.233,2.753,6.233,5.733,0,4.36-2.821,6.1-6.862,6.1h-2.69v4.09H584.35V156.345Z" transform="translate(-436.479 -76.314)" fill="#1f524b"/>
      <rect id="Rectangle_101" data-name="Rectangle 101" width="3.251" height="15.918" transform="translate(164.918 80.033)" fill="#1f524b"/>
      <path id="Path_61" data-name="Path 61" d="M593.257,165.508H596.1c2.573,0,3.8-1.309,3.8-3.186a2.978,2.978,0,0,0-3.362-3.18h-3.279Zm3.568,2.642a5.331,5.331,0,0,1-.612.023h-2.955v4.086h-3.226V156.343h7.018c4.653,0,6.235,2.758,6.235,5.733a5.358,5.358,0,0,1-3.23,5.44l3.7,4.742H599.9Z" transform="translate(-416.599 -76.312)" fill="#1f524b"/>
      <path id="Path_62" data-name="Path 62" d="M606.2,169.459v2.8h-12.22V156.343h11.74v2.8h-8.6v4.04h7.2V165.9h-7.2v3.568Z" transform="translate(-402.763 -76.312)" fill="#1f524b"/>
      <path id="Path_63" data-name="Path 63" d="M617.428,172.259H616.1l-4.517-10.45-4.49,10.45H605.76l-6.279-15.916h3.5l3.586,9.664,4.358-9.664h1.331l4.337,9.664,3.589-9.664h3.5Z" transform="translate(-383.532 -76.314)" fill="#1f524b"/>
      <rect id="Rectangle_103" data-name="Rectangle 103" width="3.251" height="15.918" transform="translate(244.354 80.033)" fill="#1f524b"/>
      <path id="Path_64" data-name="Path 64" d="M620.881,159.144H615.8V172.26h-3.251V159.144H607.5v-2.8h13.388Z" transform="translate(-355.483 -76.312)" fill="#1f524b"/>
      <path id="Path_65" data-name="Path 65" d="M625.061,156.343v15.919h-3.155v-5.4h-7.349v5.4h-3.137V156.343h3.137v7.744H621.9v-7.744Z" transform="translate(-341.736 -76.314)" fill="#1f524b"/>
      <path id="Path_66" data-name="Path 66" d="M630.855,159.144h-5.08V172.26h-3.251V159.144h-5.057v-2.8h13.388Z" transform="translate(-320.591 -76.312)" fill="#1f524b"/>
      <path id="Path_67" data-name="Path 67" d="M626.616,166.346h4.81l-2.414-5.259Zm5.962,2.685h-7.114l-1.421,3.23h-3.407l7.586-15.918h1.6l7.607,15.918h-3.411Z" transform="translate(-309.492 -76.312)" fill="#1f524b"/>
      <path id="Path_68" data-name="Path 68" d="M637.788,167.726c0,3.069-2.46,4.878-6.169,4.878a12.286,12.286,0,0,1-6.609-1.509l1.169-2.506a11.353,11.353,0,0,0,5.557,1.219c1.741,0,2.776-.635,2.776-1.81,0-1.085-1.056-1.557-3.384-2.1-3.276-.754-5.917-1.673-5.917-4.81,0-2.8,2.236-4.787,5.872-4.787a15.451,15.451,0,0,1,6.1,1.287l-1.314,2.574a14.03,14.03,0,0,0-4.851-1.056c-1.629,0-2.528.724-2.528,1.714,0,1.13,1.13,1.607,3.513,2.147,3.437.769,5.786,1.854,5.786,4.764" transform="translate(-294.196 -76.453)" fill="#1f524b"/>
      <path id="Path_69" data-name="Path 69" d="M641.941,159.144h-5.079V172.26H633.61V159.144h-5.057v-2.8h13.388Z" transform="translate(-281.799 -76.312)" fill="#1f524b"/>
      <path id="Path_70" data-name="Path 70" d="M644.7,169.459v2.8h-12.22V156.343h11.74v2.8h-8.6v4.04h7.2V165.9h-7.2v3.568Z" transform="translate(-268.049 -76.312)" fill="#1f524b"/>
      <path id="Path_71" data-name="Path 71" d="M635.445,156.344v.5h.926v2.3h.59v-2.3h.919v-.5Zm5.543,0-1.207,1.579-1.192-1.579h-.27v2.8h.59v-1.485l.872,1.16.887-1.16v1.485h.6v-2.8Z" transform="translate(-257.68 -76.313)" fill="#1f524b"/>
    </g>
  </g>
</svg>
